<?xml version="1.0" standalone="no"?><!DOCTYPE svg PUBLIC "-//W3C//DTD SVG 1.1//EN" "http://www.w3.org/Graphics/SVG/1.1/DTD/svg11.dtd"><svg height="200" legacy-metrics="false" node-id="1" sillyvg="true" template-height="200" template-width="200" version="1.1" viewBox="0 0 200 200" width="200" xmlns="http://www.w3.org/2000/svg" xmlns:xlink="http://www.w3.org/1999/xlink"><defs node-id="110"></defs><path d="M 116.71 49.49 C 120.80 52.74 140.82 45.49 138.16 48.35 C 134.74 52.04 142.26 54.02 150.49 52.44 C 154.78 51.62 166.82 50.28 166.40 45.26 C 166.00 40.00 139.48 44.89 147.00 41.39 C 152.90 38.62 151.43 35.39 142.86 36.30 C 129.82 37.71 109.59 43.84 116.71 49.49 Z" fill="none" node-id="112" stroke="#231f20" stroke-linecap="round" stroke-width="0.57" target-height="16.799545" target-width="51.176003" target-x="115.22399" target-y="36.148884"></path><path d="M 33.59 51.15 C 33.74 57.78 60.52 53.46 55.40 55.74 C 49.11 58.53 47.74 64.54 57.60 62.97 C 64.05 61.97 67.82 59.50 63.60 65.44 C 60.00 70.59 66.42 70.72 72.27 70.00 C 76.62 69.46 97.27 67.39 94.71 62.57 C 93.06 59.48 76.94 57.77 72.54 56.57 C 72.63 56.57 86.62 50.57 88.29 44.99 C 90.29 38.21 87.48 37.25 80.81 36.55 C 73.74 35.80 33.36 40.71 33.59 51.15 Z" fill="none" node-id="114" stroke="#231f20" stroke-linecap="round" stroke-width="0.57" target-height="33.838688" target-width="61.323612" target-x="33.59" target-y="36.47678"></path><path d="M 82.53 54.16 L 82.53 54.34 C 82.61 56.22 82.87 75.15 83.13 75.34 C 81.87 74.69 78.33 66.26 77.33 64.51 C 76.16 62.45 75.12 60.31 74.22 58.12 C 74.10 57.88 74.00 57.63 73.92 57.37" fill="none" node-id="116" stroke="#231f20" stroke-linecap="round" stroke-width="0.57" target-height="21.179996" target-width="9.209999" target-x="73.92" target-y="54.16"></path><path d="M 73.19 21.72 C 79.00 20.55 85.00 25.00 86.50 31.70 C 88.00 38.40 81.57 46.56 79.00 47.09 C 76.43 47.62 66.89 42.63 65.37 35.94 C 63.85 29.25 67.36 22.89 73.19 21.72 Z" fill="#0000ff" fill-rule="evenodd" node-id="118" stroke="none" target-height="25.551826" target-width="21.66755" target-x="65.04667" target-y="21.538174"></path><path d="M 73.19 21.72 C 79.00 20.55 85.00 25.00 86.50 31.70 C 88.00 38.40 81.57 46.56 79.00 47.09 C 76.43 47.62 66.89 42.63 65.37 35.94 C 63.85 29.25 67.36 22.89 73.19 21.72 Z" fill="none" node-id="120" stroke="#231f20" stroke-linecap="round" stroke-width="0.57" target-height="25.551826" target-width="21.66755" target-x="65.04667" target-y="21.538174"></path><path d="M 78.38 47.25 L 79.49 47.00 C 79.62 46.97 79.76 46.99 79.88 47.07 C 79.99 47.14 80.07 47.26 80.10 47.39 L 80.10 47.39 C 80.13 47.52 80.11 47.66 80.04 47.77 C 79.97 47.88 79.85 47.96 79.72 47.99 L 78.60 48.21 C 78.32 48.27 78.05 48.09 77.99 47.82 L 77.99 47.82 C 77.94 47.56 78.12 47.30 78.38 47.25 Z" fill="#0000ff" fill-rule="evenodd" node-id="122" stroke="none" target-height="1.2099991" target-width="2.1100006" target-x="77.99" target-y="47"></path><path d="M 78.38 47.25 L 79.49 47.00 C 79.62 46.97 79.76 46.99 79.88 47.07 C 79.99 47.14 80.07 47.26 80.10 47.39 L 80.10 47.39 C 80.13 47.52 80.11 47.66 80.04 47.77 C 79.97 47.88 79.85 47.96 79.72 47.99 L 78.60 48.21 C 78.32 48.27 78.05 48.09 77.99 47.82 L 77.99 47.82 C 77.94 47.56 78.12 47.30 78.38 47.25 Z" fill="none" node-id="124" stroke="#231f20" stroke-linecap="round" stroke-width="0.57" target-height="1.2099991" target-width="2.1100006" target-x="77.99" target-y="47"></path><path d="M 61.16 36.66 C 66.33 33.71 73.39 36.08 76.93 41.95 C 80.47 47.82 76.93 57.61 74.60 58.95 C 72.27 60.29 61.75 58.50 58.21 52.64 C 54.67 46.78 56.00 39.60 61.16 36.66 Z" fill="#ff98cb" fill-rule="evenodd" node-id="126" stroke="none" target-height="23.937511" target-width="22.132221" target-x="56.25481" target-y="35.415924"></path><path d="M 61.16 36.66 C 66.33 33.71 73.39 36.08 76.93 41.95 C 80.47 47.82 76.93 57.61 74.60 58.95 C 72.27 60.29 61.75 58.50 58.21 52.64 C 54.67 46.78 56.00 39.60 61.16 36.66 Z" fill="none" node-id="128" stroke="#231f20" stroke-linecap="round" stroke-width="0.57" target-height="23.937511" target-width="22.132221" target-x="56.25481" target-y="35.415924"></path><path d="M 74.11 59.26 L 75.11 58.70 C 75.36 58.56 75.67 58.64 75.82 58.88 L 75.82 58.88 C 75.89 58.99 75.91 59.13 75.87 59.26 C 75.84 59.39 75.76 59.50 75.64 59.56 L 74.64 60.13 C 74.39 60.26 74.09 60.18 73.94 59.94 L 73.94 59.94 C 73.87 59.83 73.85 59.69 73.88 59.56 C 73.91 59.44 74.00 59.33 74.11 59.26 Z" fill="#ff98cb" fill-rule="evenodd" node-id="130" stroke="none" target-height="1.5258751" target-width="1.992012" target-x="73.88186" target-y="58.64762"></path><path d="M 74.11 59.26 L 75.11 58.70 C 75.36 58.56 75.67 58.64 75.82 58.88 L 75.82 58.88 C 75.89 58.99 75.91 59.13 75.87 59.26 C 75.84 59.39 75.76 59.50 75.64 59.56 L 74.64 60.13 C 74.39 60.26 74.09 60.18 73.94 59.94 L 73.94 59.94 C 73.87 59.83 73.85 59.69 73.88 59.56 C 73.91 59.44 74.00 59.33 74.11 59.26 Z" fill="none" node-id="132" stroke="#231f20" stroke-linecap="round" stroke-width="0.57" target-height="1.5258751" target-width="1.992012" target-x="73.88186" target-y="58.64762"></path><path d="M 111.51 89.79 L 114.91 89.79 L 115.61 89.79 C 116.81 88.22 124.19 80.10 126.20 76.59 C 126.87 75.41 126.54 70.59 126.97 69.53 C 127.28 68.76 128.48 68.68 128.74 69.33 C 129.23 70.55 129.28 73.25 129.90 72.66 C 131.25 71.37 132.34 68.40 133.65 68.18 C 134.51 68.03 134.77 69.07 134.35 70.03 C 133.83 71.09 133.26 72.12 132.63 73.12 C 133.32 72.33 134.12 71.63 135.00 71.05 C 136.10 70.31 136.88 70.16 136.95 71.30 C 136.95 72.13 134.81 74.45 134.24 74.98 C 135.03 74.32 135.98 73.89 137.00 73.74 C 137.85 73.74 138.30 74.82 136.68 76.20 C 134.30 78.20 132.68 78.99 131.47 82.11 C 130.09 85.70 123.47 97.30 120.55 100.63 C 118.78 102.69 116.55 104.13 113.82 103.29 Z" fill="#f9d1e3" fill-rule="evenodd" node-id="134" stroke="none" target-height="35.34192" target-width="26.256264" target-x="111.51" target-y="68.18"></path><path d="M 111.51 89.79 L 114.91 89.79 L 115.61 89.79 C 116.81 88.22 124.19 80.10 126.20 76.59 C 126.87 75.41 126.54 70.59 126.97 69.53 C 127.28 68.76 128.48 68.68 128.74 69.33 C 129.23 70.55 129.28 73.25 129.90 72.66 C 131.25 71.37 132.34 68.40 133.65 68.18 C 134.51 68.03 134.77 69.07 134.35 70.03 C 133.83 71.09 133.26 72.12 132.63 73.12 C 133.32 72.33 134.12 71.63 135.00 71.05 C 136.10 70.31 136.88 70.16 136.95 71.30 C 136.95 72.13 134.81 74.45 134.24 74.98 C 135.03 74.32 135.98 73.89 137.00 73.74 C 137.85 73.74 138.30 74.82 136.68 76.20 C 134.30 78.20 132.68 78.99 131.47 82.11 C 130.09 85.70 123.47 97.30 120.55 100.63 C 118.78 102.69 116.55 104.13 113.82 103.29 Z" fill="none" node-id="136" stroke="#231f20" stroke-linecap="round" stroke-width="0.57" target-height="35.34192" target-width="26.256264" target-x="111.51" target-y="68.18"></path><path d="M 98.77 91.44 L 100.61 99.44 C 97.79 106.44 92.47 105.14 88.36 99.84 C 85.20 95.77 81.81 88.84 78.36 85.57 C 76.93 84.17 74.36 80.09 77.11 77.43 C 77.34 77.19 76.62 75.82 78.29 75.11 C 78.89 74.85 78.20 75.11 79.38 74.19 C 81.50 72.56 84.33 76.74 84.38 76.74 C 89.48 76.52 85.85 82.08 87.75 83.99 C 89.40 85.65 93.29 89.63 93.29 89.63 L 97.13 89.63 Z" fill="#f9d1e3" fill-rule="evenodd" node-id="138" stroke="none" target-height="30.385185" target-width="24.715927" target-x="75.89407" target-y="73.83908"></path><path d="M 98.77 91.44 L 100.61 99.44 C 97.79 106.44 92.47 105.14 88.36 99.84 C 85.20 95.77 81.81 88.84 78.36 85.57 C 76.93 84.17 74.36 80.09 77.11 77.43 C 77.34 77.19 76.62 75.82 78.29 75.11 C 78.89 74.85 78.20 75.11 79.38 74.19 C 81.50 72.56 84.33 76.74 84.38 76.74 C 89.48 76.52 85.85 82.08 87.75 83.99 C 89.40 85.65 93.29 89.63 93.29 89.63 L 97.13 89.63 Z" fill="none" node-id="140" stroke="#231f20" stroke-linecap="round" stroke-width="0.53" target-height="30.385185" target-width="24.715927" target-x="75.89407" target-y="73.83908"></path><path d="M 84.42 76.69 C 82.42 76.98 80.63 77.97 81.30 79.60 C 81.64 80.42 83.00 80.49 83.66 80.25 C 83.80 80.25 84.78 79.88 84.85 79.83" fill="none" node-id="142" stroke="#231f20" stroke-linecap="round" stroke-width="0.53" target-height="3.673645" target-width="3.6791153" target-x="81.17088" target-y="76.69"></path><path d="M 78.83 75.08 C 79.41 75.90 80.08 76.65 80.83 77.31 C 81.46 77.85 83.61 77.50 81.71 75.08" fill="none" node-id="144" stroke="#231f20" stroke-linecap="round" stroke-width="0.53" target-height="2.4296188" target-width="3.6362915" target-x="78.83" target-y="75.08"></path><path d="M 77.21 77.06 C 77.15 77.50 78.39 78.70 78.76 79.06 C 79.84 79.96 81.35 79.65 81.17 78.34 L 81.00 77.43" fill="none" node-id="146" stroke="#231f20" stroke-linecap="round" stroke-width="0.53" target-height="2.46875" target-width="3.959999" target-x="77.21" target-y="77.06"></path><path d="M 79.19 79.30 C 79.67 79.42 80.04 79.81 80.13 80.30 C 80.23 80.79 80.03 81.28 79.62 81.57 C 78.94 81.78 78.20 81.66 77.62 81.24 L 77.38 81.09" fill="none" node-id="148" stroke="#231f20" stroke-linecap="round" stroke-width="0.53" target-height="2.3429794" target-width="2.7543488" target-x="77.38" target-y="79.3"></path><path d="M 93.05 89.29 C 93.19 89.50 95.15 91.36 95.15 91.36" fill="none" node-id="150" stroke="#231f20" stroke-linecap="round" stroke-width="0.53" target-height="2.0699997" target-width="2.0999985" target-x="93.05" target-y="89.29"></path><path d="M 105.16 81.35 C 104.46 82.81 102.42 82.17 102.16 81.61 C 102.08 79.61 100.39 79.38 99.26 80.00 C 97.26 81.12 93.53 89.27 93.60 89.77 L 97.19 89.77 L 94.35 110.00 L 114.87 110.00 L 111.52 89.81 L 115.33 89.81 C 114.81 88.88 112.57 83.81 110.97 81.36 C 109.37 78.91 106.68 78.12 105.16 81.35 Z" fill="#ffffff" fill-rule="evenodd" node-id="152" stroke="none" target-height="30.774994" target-width="21.730003" target-x="93.6" target-y="79.225006"></path><path d="M 105.16 81.35 C 104.46 82.81 102.42 82.17 102.16 81.61 C 102.08 79.61 100.39 79.38 99.26 80.00 C 97.26 81.12 93.53 89.27 93.60 89.77 L 97.19 89.77 L 94.35 110.00 L 114.87 110.00 L 111.52 89.81 L 115.33 89.81 C 114.81 88.88 112.57 83.81 110.97 81.36 C 109.37 78.91 106.68 78.12 105.16 81.35 Z" fill="none" node-id="154" stroke="#231f20" stroke-linecap="round" stroke-width="0.54" target-height="30.774994" target-width="21.730003" target-x="93.6" target-y="79.225006"></path><path d="M 115.05 110.00 C 116.89 112.24 118.72 116.43 120.47 121.55 C 121.82 125.49 122.11 126.29 123.47 131.09 L 138.36 125.25 L 141.86 149.35 C 141.74 148.66 129.59 152.84 117.37 155.35 C 109.00 157.00 104.00 153.75 102.56 148.72 C 101.25 144.00 100.00 138.00 99.00 133.26 L 99.00 133.26 C 98.85 132.70 98.50 133.01 98.50 133.01 C 98.50 133.29 101.37 145.69 101.37 145.69 C 101.26 146.35 97.84 157.82 97.89 158.15 L 72.53 158.15 C 73.37 155.54 77.91 137.50 78.53 134.42 C 79.32 130.78 80.05 130.65 81.82 128.02 C 86.63 120.89 93.76 111.16 94.08 110.02 Z" fill="#231f20" fill-rule="evenodd" node-id="156" stroke="none" target-height="48.149994" target-width="69.33" target-x="72.53" target-y="110"></path><path d="M 101.64 78.41 C 101.28 76.70 102.02 75.29 103.42 75.01 C 103.78 74.88 104.19 75.00 104.42 75.30 L 105.35 80.85 C 105.56 82.31 102.69 83.02 102.15 81.85 Z" fill="#f9d1e3" fill-rule="evenodd" node-id="158" stroke="none" target-height="7.443947" target-width="3.7768326" target-x="101.573166" target-y="74.991234"></path><path d="M 101.64 78.41 C 101.28 76.70 102.02 75.29 103.42 75.01 C 103.78 74.88 104.19 75.00 104.42 75.30 L 105.35 80.85 C 105.56 82.31 102.69 83.02 102.15 81.85 Z" fill="none" node-id="160" stroke="#231f20" stroke-linecap="round" stroke-width="0.57" target-height="7.443947" target-width="3.7768326" target-x="101.573166" target-y="74.991234"></path><path d="M 97.54 87.55 L 97.17 89.79" fill="none" node-id="162" stroke="#231f20" stroke-linecap="round" stroke-width="0.57" target-height="2.2399979" target-width="0.37000275" target-x="97.17" target-y="87.55"></path><path d="M 111.06 87.63 L 111.53 89.88" fill="none" node-id="164" stroke="#231f20" stroke-linecap="round" stroke-width="0.57" target-height="2.25" target-width="0.47000122" target-x="111.06" target-y="87.63"></path><path d="M 97.00 70.77 C 97.49 69.67 98.41 68.84 99.55 68.46 C 102.18 68.00 104.68 68.76 105.31 71.88 C 105.73 73.88 104.13 76.74 102.23 77.62 C 98.00 79.57 94.48 75.21 97.00 70.77 Z" fill="#f9d1e3" fill-rule="evenodd" node-id="166" stroke="none" target-height="9.690323" target-width="9.162476" target-x="96.14752" target-y="68.36527"></path><path d="M 97.00 70.77 C 97.49 69.67 98.41 68.84 99.55 68.46 C 102.18 68.00 104.68 68.76 105.31 71.88 C 105.73 73.88 104.13 76.74 102.23 77.62 C 98.00 79.57 94.48 75.21 97.00 70.77 Z" fill="none" node-id="168" stroke="#231f20" stroke-linecap="round" stroke-width="0.57" target-height="9.690323" target-width="9.162476" target-x="96.14752" target-y="68.36527"></path><path d="M 98.73 73.65 C 98.86 73.35 99.18 73.19 99.62 73.46 L 99.86 73.65" fill="none" node-id="170" stroke="#231f20" stroke-linecap="round" stroke-width="0.57" target-height="0.3035431" target-width="1.1299973" target-x="98.73" target-y="73.34646"></path><path d="M 99.13 71.83 C 99.22 71.83 99.31 71.86 99.37 71.93 C 99.43 71.99 99.47 72.08 99.46 72.17 C 99.45 72.36 99.29 72.52 99.10 72.52 C 99.01 72.52 98.92 72.48 98.86 72.42 C 98.80 72.35 98.76 72.26 98.77 72.17 C 98.78 71.98 98.94 71.83 99.13 71.83 Z" fill="#231f20" fill-rule="evenodd" node-id="172" stroke="none" target-height="0.6899948" target-width="0.69000244" target-x="98.77" target-y="71.83"></path><path d="M 99.13 71.83 C 99.22 71.83 99.31 71.86 99.37 71.93 C 99.43 71.99 99.47 72.08 99.46 72.17 C 99.45 72.36 99.29 72.52 99.10 72.52 C 99.01 72.52 98.92 72.48 98.86 72.42 C 98.80 72.35 98.76 72.26 98.77 72.17 C 98.78 71.98 98.94 71.83 99.13 71.83 Z" fill="none" node-id="174" stroke="#231f20" stroke-linecap="round" stroke-width="0.06" target-height="0.6899948" target-width="0.69000244" target-x="98.77" target-y="71.83"></path><path d="M 101.05 71.83 C 101.14 71.83 101.23 71.86 101.29 71.93 C 101.35 71.99 101.39 72.08 101.38 72.17 C 101.37 72.36 101.21 72.52 101.02 72.52 C 100.93 72.52 100.84 72.48 100.78 72.42 C 100.72 72.35 100.68 72.26 100.69 72.17 C 100.70 71.98 100.86 71.83 101.05 71.83 Z" fill="#231f20" fill-rule="evenodd" node-id="176" stroke="none" target-height="0.6899948" target-width="0.6899948" target-x="100.69" target-y="71.83"></path><path d="M 101.05 71.83 C 101.14 71.83 101.23 71.86 101.29 71.93 C 101.35 71.99 101.39 72.08 101.38 72.17 C 101.37 72.36 101.21 72.52 101.02 72.52 C 100.93 72.52 100.84 72.48 100.78 72.42 C 100.72 72.35 100.68 72.26 100.69 72.17 C 100.70 71.98 100.86 71.83 101.05 71.83 Z" fill="none" node-id="178" stroke="#231f20" stroke-linecap="round" stroke-width="0.06" target-height="0.6899948" target-width="0.6899948" target-x="100.69" target-y="71.83"></path><path d="M 110.54 77.14 C 109.31 70.82 108.28 67.00 103.00 67.00 C 98.84 67.00 97.20 70.41 97.48 70.39 L 103.38 70.39 L 104.73 77.20 Z" fill="#231f20" fill-rule="evenodd" node-id="180" stroke="none" target-height="10.199997" target-width="13.077599" target-x="97.4624" target-y="67"></path><path d="M 110.54 77.14 C 109.31 70.82 108.28 67.00 103.00 67.00 C 98.84 67.00 97.20 70.41 97.48 70.39 L 103.38 70.39 L 104.73 77.20 Z" fill="none" node-id="182" stroke="#231f20" stroke-linecap="round" stroke-width="0.57" target-height="10.199997" target-width="13.077599" target-x="97.4624" target-y="67"></path><path d="M 116.91 114.18 L 112.62 114.18 C 113.31 115.56 116.29 123.95 116.39 124.36 L 121.53 126.48" fill="none" node-id="184" stroke="#ffffff" stroke-linecap="round" stroke-width="0.57" target-height="12.300003" target-width="8.909996" target-x="112.62" target-y="114.18"></path><path d="M 99.28 175.76 L 97.37 157.94 L 74.70 157.94 C 74.70 159.21 74.15 161.53 71.11 163.80 C 69.42 165.07 65.95 166.20 63.41 167.75 C 61.12 169.15 58.13 171.56 57.91 175.75 L 82.84 175.75 L 85.15 173.10 L 85.79 175.75 Z" fill="#ffffff" fill-rule="evenodd" node-id="186" stroke="none" target-height="17.819992" target-width="41.37" target-x="57.91" target-y="157.94"></path><path d="M 99.28 175.76 L 97.37 157.94 L 74.70 157.94 C 74.70 159.21 74.15 161.53 71.11 163.80 C 69.42 165.07 65.95 166.20 63.41 167.75 C 61.12 169.15 58.13 171.56 57.91 175.75 L 82.84 175.75 L 85.15 173.10 L 85.79 175.75 Z" fill="none" node-id="188" stroke="#231f20" stroke-linecap="round" stroke-width="0.57" target-height="17.819992" target-width="41.37" target-x="57.91" target-y="157.94"></path><path d="M 58.65 172.68 L 98.85 172.68" fill="none" node-id="190" stroke="#231f20" stroke-linecap="round" stroke-width="0.57" target-height="0" target-width="40.199997" target-x="58.65" target-y="172.68"></path><path d="M 91.14 160.00 C 91.72 160.00 92.28 160.24 92.68 160.66 C 93.08 161.08 93.28 161.65 93.25 162.23 C 93.20 163.44 92.21 164.41 91.00 164.44 C 90.42 164.44 89.86 164.20 89.46 163.77 C 89.06 163.35 88.86 162.78 88.89 162.20 C 88.95 160.99 89.93 160.03 91.14 160.00 Z" fill="#ffffff" fill-rule="evenodd" node-id="192" stroke="none" target-height="4.4400024" target-width="4.3600006" target-x="88.89" target-y="160"></path><path d="M 91.14 160.00 C 91.72 160.00 92.28 160.24 92.68 160.66 C 93.08 161.08 93.28 161.65 93.25 162.23 C 93.20 163.44 92.21 164.41 91.00 164.44 C 90.42 164.44 89.86 164.20 89.46 163.77 C 89.06 163.35 88.86 162.78 88.89 162.20 C 88.95 160.99 89.93 160.03 91.14 160.00 Z" fill="none" node-id="194" stroke="#ff0000" stroke-linecap="round" stroke-width="0.56" target-height="4.4400024" target-width="4.3600006" target-x="88.89" target-y="160"></path><path d="M 67.66 165.64 C 69.80 165.64 72.21 171.64 71.78 172.64" fill="none" node-id="196" stroke="#231f20" stroke-linecap="round" stroke-width="0.57" target-height="7" target-width="4.1624985" target-x="67.66" target-y="165.64"></path><path d="M 70.56 168.50 C 74.79 167.60 80.22 162.80 80.56 157.94" fill="none" node-id="198" stroke="#231f20" stroke-linecap="round" stroke-width="0.57" target-height="10.559998" target-width="10" target-x="70.56" target-y="157.94"></path><path d="M 155.47 119.06 L 138.25 125.70 L 140.72 148.24 C 141.96 147.93 144.16 147.58 146.84 150.31 C 148.22 151.71 149.74 154.82 151.54 156.95 C 153.16 158.87 155.99 161.52 160.01 160.71 L 157.26 135.59 L 154.42 134.00 L 156.94 132.51 Z" fill="#ffffff" fill-rule="evenodd" node-id="200" stroke="none" target-height="41.783813" target-width="21.759995" target-x="138.25" target-y="119.06"></path><path d="M 155.47 119.06 L 138.25 125.70 L 140.72 148.24 C 141.96 147.93 144.16 147.58 146.84 150.31 C 148.22 151.71 149.74 154.82 151.54 156.95 C 153.16 158.87 155.99 161.52 160.01 160.71 L 157.26 135.59 L 154.42 134.00 L 156.94 132.51 Z" fill="none" node-id="202" stroke="#231f20" stroke-linecap="round" stroke-width="0.57" target-height="41.783813" target-width="21.759995" target-x="138.25" target-y="119.06"></path><path d="M 156.89 160.59 L 152.50 120.46" fill="none" node-id="204" stroke="#231f20" stroke-linecap="round" stroke-width="0.57" target-height="40.129997" target-width="4.3899994" target-x="152.5" target-y="120.46"></path><path d="M 140.88 131.00 C 140.82 130.41 141.00 129.82 141.37 129.37 C 141.75 128.91 142.29 128.62 142.88 128.56 C 143.46 128.48 144.05 128.64 144.52 129.00 C 144.98 129.36 145.28 129.90 145.35 130.48 C 145.47 131.71 144.57 132.80 143.35 132.93 C 142.77 133.00 142.18 132.84 141.71 132.48 C 141.25 132.12 140.95 131.58 140.88 131.00 Z" fill="#ffffff" fill-rule="evenodd" node-id="206" stroke="none" target-height="4.369995" target-width="4.470001" target-x="140.88" target-y="128.56"></path><path d="M 140.88 131.00 C 140.82 130.41 141.00 129.82 141.37 129.37 C 141.75 128.91 142.29 128.62 142.88 128.56 C 143.46 128.48 144.05 128.64 144.52 129.00 C 144.98 129.36 145.28 129.90 145.35 130.48 C 145.47 131.71 144.57 132.80 143.35 132.93 C 142.77 133.00 142.18 132.84 141.71 132.48 C 141.25 132.12 140.95 131.58 140.88 131.00 Z" fill="none" node-id="208" stroke="#ff0000" stroke-linecap="round" stroke-width="0.56" target-height="4.369995" target-width="4.470001" target-x="140.88" target-y="128.56"></path><path d="M 149.00 153.26 C 148.73 151.15 154.38 147.20 155.44 147.38" fill="none" node-id="210" stroke="#231f20" stroke-linecap="round" stroke-width="0.57" target-height="5.8799896" target-width="6.4400024" target-x="149" target-y="147.38"></path><path d="M 151.50 149.66 C 150.15 145.66 144.87 141.51 140.07 142.38" fill="none" node-id="212" stroke="#231f20" stroke-linecap="round" stroke-width="0.57" target-height="7.3842316" target-width="11.429993" target-x="140.07" target-y="142.27577"></path><path d="M 102.56 73.83 C 102.90 74.29 102.94 74.91 102.67 75.41 C 102.40 75.92 101.86 76.22 101.29 76.19 C 100.72 76.16 100.22 75.80 100.00 75.27 Z" fill="#ffffff" fill-rule="evenodd" node-id="214" stroke="none" target-height="2.3577118" target-width="2.846077" target-x="100" target-y="73.83"></path><path d="M 102.56 73.83 C 102.90 74.29 102.94 74.91 102.67 75.41 C 102.40 75.92 101.86 76.22 101.29 76.19 C 100.72 76.16 100.22 75.80 100.00 75.27 Z" fill="none" node-id="216" stroke="#231f20" stroke-linecap="round" stroke-width="0.57" target-height="2.3577118" target-width="2.846077" target-x="100" target-y="73.83"></path><path d="M 130.17 74.86 C 130.43 76.09 130.22 77.38 129.58 78.46" fill="none" node-id="218" stroke="#231f20" stroke-linecap="round" stroke-width="0.57" target-height="3.5999985" target-width="0.6953583" target-x="129.58" target-y="74.86"></path><path d="M 115.76 89.66 L 114.02 91.85" fill="none" node-id="220" stroke="#231f20" stroke-linecap="round" stroke-width="0.57" target-height="2.1899948" target-width="1.7400055" target-x="114.02" target-y="89.66"></path><path d="M 82.63 76.20 C 86.24 73.70 97.72 53.53 98.76 47.59" fill="none" node-id="222" stroke="#231f20" stroke-linecap="round" stroke-width="0.57" target-height="28.609997" target-width="16.130005" target-x="82.63" target-y="47.59"></path><path d="M 82.63 76.20 C 83.87 75.02 88.91 57.43 89.13 53.26" fill="none" node-id="224" stroke="#231f20" stroke-linecap="round" stroke-width="0.57" target-height="22.939999" target-width="6.5" target-x="82.63" target-y="53.26"></path><path d="M 82.63 76.20 C 82.86 75.12 80.36 51.13 79.79 47.59" fill="none" node-id="226" stroke="#231f20" stroke-linecap="round" stroke-width="0.57" target-height="28.609997" target-width="2.8399963" target-x="79.79" target-y="47.59"></path><path d="M 120.92 64.55 C 123.16 64.55 128.09 65.77 130.44 67.48" fill="none" node-id="228" stroke="#231f20" stroke-linecap="round" stroke-width="0.57" target-height="2.9300003" target-width="9.520004" target-x="120.92" target-y="64.55"></path><path d="M 114.33 66.45 C 116.99 66.22 122.40 66.45 124.76 67.57" fill="none" node-id="230" stroke="#231f20" stroke-linecap="round" stroke-width="0.57" target-height="1.180748" target-width="10.43" target-x="114.33" target-y="66.38925"></path><path d="M 138.42 76.75 C 139.25 77.98 139.84 79.37 140.16 80.82" fill="none" node-id="232" stroke="#231f20" stroke-linecap="round" stroke-width="0.57" target-height="4.0699997" target-width="1.7400055" target-x="138.42" target-y="76.75"></path><path d="M 77.52 81.47 C 74.27 85.34 72.19 90.05 71.52 95.06" fill="none" node-id="234" stroke="#231f20" stroke-linecap="round" stroke-width="0.57" target-height="13.589996" target-width="6" target-x="71.52" target-y="81.47"></path><path d="M 78.68 81.92 C 76.71 85.02 75.11 88.35 73.91 91.82" fill="none" node-id="236" stroke="#231f20" stroke-linecap="round" stroke-width="0.57" target-height="9.900002" target-width="4.7699966" target-x="73.91" target-y="81.92"></path><path d="M 80.68 79.75 C 79.66 83.08 79.07 86.52 78.93 90.00" fill="none" node-id="238" stroke="#231f20" stroke-linecap="round" stroke-width="0.57" target-height="10.25" target-width="1.75" target-x="78.93" target-y="79.75"></path><path d="M 89.09 26.46 C 94.70 26.46 99.25 32.00 99.25 38.84 C 99.25 45.68 91.61 52.40 89.09 52.40 C 86.57 52.40 78.93 45.67 78.93 38.84 C 78.93 32.01 83.48 26.46 89.09 26.46 Z" fill="#0094d9" fill-rule="evenodd" node-id="240" stroke="none" target-height="25.940002" target-width="20.32" target-x="78.93" target-y="26.46"></path><path d="M 89.09 26.46 C 94.70 26.46 99.25 32.00 99.25 38.84 C 99.25 45.68 91.61 52.40 89.09 52.40 C 86.57 52.40 78.93 45.67 78.93 38.84 C 78.93 32.01 83.48 26.46 89.09 26.46 Z" fill="none" node-id="242" stroke="#231f20" stroke-linecap="round" stroke-width="0.57" target-height="25.940002" target-width="20.32" target-x="78.93" target-y="26.46"></path><path d="M 88.56 52.45 L 89.57 52.45 C 89.85 52.45 90.08 52.68 90.08 52.96 L 90.08 52.96 C 90.08 53.24 89.85 53.47 89.57 53.47 L 88.56 53.47 C 88.28 53.47 88.05 53.24 88.05 52.96 L 88.05 52.96 C 88.05 52.68 88.28 52.45 88.56 52.45 Z" fill="#0094d9" fill-rule="nonzero" node-id="244" stroke="none" target-height="1.0200005" target-width="2.0299988" target-x="88.05" target-y="52.45"></path><path d="M 88.56 52.45 L 89.57 52.45 C 89.85 52.45 90.08 52.68 90.08 52.96 L 90.08 52.96 C 90.08 53.24 89.85 53.47 89.57 53.47 L 88.56 53.47 C 88.28 53.47 88.05 53.24 88.05 52.96 L 88.05 52.96 C 88.05 52.68 88.28 52.45 88.56 52.45 Z" fill="none" node-id="246" stroke="#231f20" stroke-linecap="round" stroke-width="0.57" target-height="1.0200005" target-width="2.0299988" target-x="88.05" target-y="52.45"></path><path d="M 103.00 32.00 C 108.35 33.72 111.00 40.39 108.90 46.89 C 106.80 53.39 97.43 57.50 95.00 56.73 C 92.57 55.96 87.38 47.22 89.47 40.73 C 91.56 34.24 97.62 30.32 103.00 32.00 Z" fill="#ffca05" fill-rule="evenodd" node-id="248" stroke="none" target-height="25.160147" target-width="20.613365" target-x="89.00874" target-y="31.64678"></path><path d="M 103.00 32.00 C 108.35 33.72 111.00 40.39 108.90 46.89 C 106.80 53.39 97.43 57.50 95.00 56.73 C 92.57 55.96 87.38 47.22 89.47 40.73 C 91.56 34.24 97.62 30.32 103.00 32.00 Z" fill="none" node-id="250" stroke="#231f20" stroke-linecap="round" stroke-width="0.57" target-height="25.160147" target-width="20.613365" target-x="89.00874" target-y="31.64678"></path><path d="M 94.51 56.61 L 95.51 56.92 C 95.78 57.01 95.93 57.29 95.84 57.56 L 95.84 57.56 C 95.80 57.69 95.71 57.80 95.59 57.86 C 95.47 57.92 95.33 57.93 95.20 57.89 L 94.20 57.58 C 93.94 57.49 93.79 57.21 93.87 56.94 L 93.87 56.94 C 93.91 56.81 94.00 56.70 94.12 56.64 C 94.24 56.58 94.38 56.57 94.51 56.61 Z" fill="#ffca05" fill-rule="evenodd" node-id="252" stroke="none" target-height="1.2799988" target-width="1.9699936" target-x="93.87" target-y="56.61"></path><path d="M 94.51 56.61 L 95.51 56.92 C 95.78 57.01 95.93 57.29 95.84 57.56 L 95.84 57.56 C 95.80 57.69 95.71 57.80 95.59 57.86 C 95.47 57.92 95.33 57.93 95.20 57.89 L 94.20 57.58 C 93.94 57.49 93.79 57.21 93.87 56.94 L 93.87 56.94 C 93.91 56.81 94.00 56.70 94.12 56.64 C 94.24 56.58 94.38 56.57 94.51 56.61 Z" fill="none" node-id="254" stroke="#231f20" stroke-linecap="round" stroke-width="0.57" target-height="1.2799988" target-width="1.9699936" target-x="93.87" target-y="56.61"></path><path d="M 78.09 31.11 C 83.67 30.52 88.78 35.56 89.49 42.35 C 90.20 49.14 83.32 56.65 80.81 56.91 C 78.30 57.17 70.00 51.28 69.28 44.49 C 68.56 37.70 72.50 31.70 78.09 31.11 Z" fill="#ff6600" fill-rule="evenodd" node-id="256" stroke="none" target-height="25.8" target-width="20.27565" target-x="69.21435" target-y="31.11"></path><path d="M 78.09 31.11 C 83.67 30.52 88.78 35.56 89.49 42.35 C 90.20 49.14 83.32 56.65 80.81 56.91 C 78.30 57.17 70.00 51.28 69.28 44.49 C 68.56 37.70 72.50 31.70 78.09 31.11 Z" fill="none" node-id="258" stroke="#231f20" stroke-linecap="round" stroke-width="0.57" target-height="25.8" target-width="20.27565" target-x="69.21435" target-y="31.11"></path><path d="M 80.29 57.00 L 81.29 56.89 C 81.43 56.88 81.56 56.92 81.67 57.00 C 81.77 57.09 81.84 57.21 81.85 57.35 L 81.85 57.35 C 81.87 57.62 81.67 57.87 81.40 57.90 L 80.40 58.01 C 80.27 58.02 80.13 57.98 80.03 57.90 C 79.93 57.82 79.86 57.69 79.85 57.56 L 79.85 57.56 C 79.82 57.28 80.02 57.04 80.29 57.00 Z" fill="#ff6600" fill-rule="evenodd" node-id="260" stroke="none" target-height="1.1199989" target-width="2" target-x="79.85" target-y="56.89"></path><path d="M 80.29 57.00 L 81.29 56.89 C 81.43 56.88 81.56 56.92 81.67 57.00 C 81.77 57.09 81.84 57.21 81.85 57.35 L 81.85 57.35 C 81.87 57.62 81.67 57.87 81.40 57.90 L 80.40 58.01 C 80.27 58.02 80.13 57.98 80.03 57.90 C 79.93 57.82 79.86 57.69 79.85 57.56 L 79.85 57.56 C 79.82 57.28 80.02 57.04 80.29 57.00 Z" fill="none" node-id="262" stroke="#231f20" stroke-linecap="round" stroke-width="0.57" target-height="1.1199989" target-width="2" target-x="79.85" target-y="56.89"></path><path d="M 138.29 23.14 C 142.84 26.98 143.06 34.42 138.77 39.77 C 134.48 45.12 124.07 45.17 122.03 43.45 C 119.99 41.73 118.03 31.24 122.29 25.89 C 126.55 20.54 133.73 19.31 138.29 23.14 Z" fill="#8dd7f7" fill-rule="evenodd" node-id="264" stroke="none" target-height="23.504196" target-width="22.037048" target-x="119.79726" target-y="20.94923"></path><path d="M 138.29 23.14 C 142.84 26.98 143.06 34.42 138.77 39.77 C 134.48 45.12 124.07 45.17 122.03 43.45 C 119.99 41.73 118.03 31.24 122.29 25.89 C 126.55 20.54 133.73 19.31 138.29 23.14 Z" fill="none" node-id="266" stroke="#231f20" stroke-linecap="round" stroke-width="0.57" target-height="23.504196" target-width="22.037048" target-x="119.79726" target-y="20.94923"></path><path d="M 121.55 43.11 L 122.42 43.84 C 122.63 44.02 122.66 44.34 122.49 44.56 L 122.49 44.56 C 122.41 44.66 122.28 44.73 122.15 44.74 C 122.02 44.76 121.88 44.72 121.78 44.63 L 120.91 43.90 C 120.70 43.72 120.67 43.40 120.84 43.18 L 120.84 43.18 C 120.92 43.08 121.05 43.01 121.18 43.00 C 121.31 42.98 121.45 43.02 121.55 43.11 Z" fill="#8dd7f7" fill-rule="evenodd" node-id="268" stroke="none" target-height="1.7478409" target-width="1.8638687" target-x="120.73306" target-y="42.99608"></path><path d="M 121.55 43.11 L 122.42 43.84 C 122.63 44.02 122.66 44.34 122.49 44.56 L 122.49 44.56 C 122.41 44.66 122.28 44.73 122.15 44.74 C 122.02 44.76 121.88 44.72 121.78 44.63 L 120.91 43.90 C 120.70 43.72 120.67 43.40 120.84 43.18 L 120.84 43.18 C 120.92 43.08 121.05 43.01 121.18 43.00 C 121.31 42.98 121.45 43.02 121.55 43.11 Z" fill="none" node-id="270" stroke="#231f20" stroke-linecap="round" stroke-width="0.57" target-height="1.7478409" target-width="1.8638687" target-x="120.73306" target-y="42.99608"></path><path d="M 121.78 44.63 C 115.53 48.98 122.78 54.28 117.16 55.69 C 115.37 56.14 110.64 54.69 110.91 59.19 C 111.06 61.89 110.24 63.31 107.28 63.48 L 107.00 63.48" fill="none" node-id="272" stroke="#231f20" stroke-linecap="round" stroke-width="0.57" target-height="18.849998" target-width="14.779999" target-x="107" target-y="44.63"></path><path d="M 77.46 81.36 C 76.19 82.86 74.54 83.99 72.68 84.63" fill="none" node-id="274" stroke="#231f20" stroke-linecap="round" stroke-width="0.57" target-height="3.2699966" target-width="4.779999" target-x="72.68" target-y="81.36"></path><path d="M 98.00 39.83 C 97.85 40.25 97.76 40.69 97.73 41.14" fill="none" node-id="276" stroke="#231f20" stroke-linecap="round" stroke-width="0.57" target-height="1.3099976" target-width="0.26999664" target-x="97.73" target-y="39.83"></path><path d="M 101.29 40.50 C 101.13 40.90 100.90 41.62 100.81 41.93" fill="none" node-id="278" stroke="#231f20" stroke-linecap="round" stroke-width="0.57" target-height="1.4300003" target-width="0.48000336" target-x="100.81" target-y="40.5"></path><path d="M 93.64 43.61 C 91.80 51.73 101.44 53.75 103.28 46.31" fill="none" node-id="280" stroke="#231f20" stroke-linecap="round" stroke-width="0.57" target-height="7.318157" target-width="9.862144" target-x="93.417854" target-y="43.61"></path><path d="M 78.42 47.43 C 78.59 48.33 79.42 48.96 80.33 48.87 C 81.24 48.78 81.94 48.01 81.93 47.09" fill="none" node-id="282" stroke="#231f20" stroke-linecap="round" stroke-width="0.57" target-height="1.7776375" target-width="3.5100021" target-x="78.42" target-y="47.09"></path><path d="M 126.00 33.75 C 126.00 33.51 125.96 33.28 125.87 33.06 C 125.60 32.56 125.87 32.26 126.28 32.41 C 126.50 32.51 126.83 32.72 127.06 32.41 C 127.29 32.10 126.91 31.85 126.85 31.54 C 126.79 31.23 126.85 31.05 127.30 31.12 C 127.47 31.12 128.02 31.54 128.30 31.23" fill="none" node-id="284" stroke="#231f20" stroke-linecap="round" stroke-width="0.57" target-height="2.6299992" target-width="2.5390472" target-x="125.760956" target-y="31.12"></path><path d="M 128.09 27.30 C 129.25 27.14 129.58 26.71 129.49 28.18" fill="none" node-id="286" stroke="#231f20" stroke-linecap="round" stroke-width="0.57" target-height="1.0512505" target-width="1.4000092" target-x="128.09" target-y="27.12875"></path><path d="M 130.53 28.93 C 132.18 28.44 131.58 28.49 132.15 29.93" fill="none" node-id="288" stroke="#231f20" stroke-linecap="round" stroke-width="0.57" target-height="1.2785206" target-width="1.6199951" target-x="130.53" target-y="28.65148"></path><path d="M 63.55 47.00 C 62.89 46.85 62.19 47.08 61.75 47.60" fill="none" node-id="290" stroke="#231f20" stroke-linecap="round" stroke-width="0.57" target-height="0.5999985" target-width="1.7999992" target-x="61.75" target-y="47"></path><path d="M 65.40 45.09 C 65.42 44.42 65.80 43.82 66.40 43.52" fill="none" node-id="292" stroke="#231f20" stroke-linecap="round" stroke-width="0.57" target-height="1.5699997" target-width="1" target-x="65.4" target-y="43.52"></path><path d="M 72.06 27.83 C 71.63 28.35 71.29 28.93 71.06 29.56" fill="none" node-id="294" stroke="#231f20" stroke-linecap="round" stroke-width="0.57" target-height="1.7299995" target-width="1" target-x="71.06" target-y="27.83"></path><path d="M 74.53 26.81 C 75.10 26.78 75.66 26.81 76.22 26.92" fill="none" node-id="296" stroke="#231f20" stroke-linecap="round" stroke-width="0.57" target-height="0.11000061" target-width="1.6900024" target-x="74.53" target-y="26.81"></path><path d="M 72.87 29.52 C 72.87 29.52 73.07 29.73 73.10 29.74" fill="none" node-id="298" stroke="#231f20" stroke-linecap="round" stroke-width="0.57" target-height="0.21999931" target-width="0.22999573" target-x="72.87" target-y="29.52"></path><path d="M 75.31 28.52 C 75.31 28.57 75.46 28.82 75.46 28.82" fill="none" node-id="300" stroke="#231f20" stroke-linecap="round" stroke-width="0.57" target-height="0.29999924" target-width="0.15000153" target-x="75.31" target-y="28.52"></path><path d="M 88.78 32.38 C 88.78 32.61 88.78 32.65 88.78 32.83" fill="none" node-id="302" stroke="#231f20" stroke-linecap="round" stroke-width="0.57" target-height="0.45000076" target-width="0" target-x="88.78" target-y="32.38"></path><path d="M 89.65 32.49 C 89.62 32.63 89.60 32.77 89.58 32.91" fill="none" node-id="304" stroke="#231f20" stroke-linecap="round" stroke-width="0.57" target-height="0.41999817" target-width="0.069999695" target-x="89.58" target-y="32.49"></path><path d="M 88.36 34.34 C 88.33 34.70 88.56 35.03 88.91 35.12 C 89.26 35.20 89.62 35.02 89.76 34.69" fill="none" node-id="306" stroke="#231f20" stroke-linecap="round" stroke-width="0.57" target-height="0.7757187" target-width="1.4000015" target-x="88.36" target-y="34.34"></path><path d="M 93.00 42.78 C 93.37 43.78 94.06 43.64 94.77 43.21" fill="none" node-id="308" stroke="#231f20" stroke-linecap="round" stroke-width="0.57" target-height="0.7512474" target-width="1.7699966" target-x="93" target-y="42.78"></path><path d="M 102.70 45.52 C 103.07 46.52 103.76 46.38 104.47 45.95" fill="none" node-id="310" stroke="#231f20" stroke-linecap="round" stroke-width="0.57" target-height="0.7512512" target-width="1.7700043" target-x="102.7" target-y="45.52"></path><path d="M 78.22 40.30 C 78.40 40.30 78.54 40.44 78.54 40.62 C 78.54 40.80 78.40 40.94 78.22 40.94 C 78.04 40.94 77.90 40.80 77.90 40.62 C 77.90 40.44 78.04 40.30 78.22 40.30" fill="#231f20" fill-rule="evenodd" node-id="312" stroke="none" target-height="0.6399994" target-width="0.6399994" target-x="77.9" target-y="40.3"></path><path d="M 81.00 40.24 C 81.18 40.24 81.32 40.38 81.32 40.56 C 81.34 40.69 81.29 40.82 81.18 40.89 C 81.07 40.97 80.92 40.97 80.81 40.89 C 80.70 40.82 80.65 40.69 80.67 40.56 C 80.67 40.47 80.71 40.39 80.77 40.33 C 80.83 40.27 80.91 40.24 81.00 40.24" fill="#231f20" fill-rule="evenodd" node-id="314" stroke="none" target-height="0.6529503" target-width="0.6500015" target-x="80.67" target-y="40.24"></path><path d="M 65.46 50.08 C 65.46 50.95 68.46 51.34 68.70 49.15 C 68.84 47.81 68.27 47.27 67.78 47.54 C 67.29 47.81 67.67 48.54 67.10 49.10 C 66.53 49.66 65.42 49.13 65.46 50.08 Z" fill="none" node-id="316" stroke="#231f20" stroke-linecap="round" stroke-width="0.57" target-height="3.2763786" target-width="3.2399979" target-x="65.46" target-y="47.48717"></path><path d="M 98.26 131.73 L 101.71 146.39" fill="none" node-id="318" stroke="#ffffff" stroke-linecap="round" stroke-width="0.57" target-height="14.660004" target-width="3.449997" target-x="98.26" target-y="131.73"></path></svg>