<?xml version="1.0" standalone="no"?><!DOCTYPE svg PUBLIC "-//W3C//DTD SVG 1.1//EN" "http://www.w3.org/Graphics/SVG/1.1/DTD/svg11.dtd"><svg height="200" legacy-metrics="false" node-id="1" sillyvg="true" template-height="200" template-width="200" version="1.1" viewBox="0 0 200 200" width="200" xmlns="http://www.w3.org/2000/svg" xmlns:xlink="http://www.w3.org/1999/xlink"><defs node-id="95"></defs><path d="M 140.57 135.35 L 117.36 135.35 L 124.27 90.22 L 147.48 90.22 L 140.57 135.35 Z" fill="#a68a6b" fill-rule="evenodd" node-id="97" stroke="none" target-height="45.130005" target-width="30.119995" target-x="117.36" target-y="90.22"></path><path d="M 140.57 135.35 L 117.36 135.35 L 124.27 90.22 L 147.48 90.22 L 140.57 135.35 Z" fill="none" node-id="99" stroke="#231f20" stroke-linecap="round" stroke-width="0.57" target-height="45.130005" target-width="30.119995" target-x="117.36" target-y="90.22"></path><path d="M 151.00 78.44 C 150.83 77.37 151.11 76.29 151.78 75.44 C 152.93 73.60 153.16 72.07 151.38 70.76 C 148.29 68.49 151.18 65.64 147.95 64.88 C 146.89 64.63 144.80 64.97 142.54 63.88 C 141.87 63.54 142.54 63.88 141.86 67.21 C 141.65 68.21 140.86 70.57 143.64 71.67 C 147.01 73.00 142.97 75.01 149.16 76.73 C 150.00 76.98 150.68 77.62 151.00 78.44 Z" fill="#231f20" fill-rule="evenodd" node-id="101" stroke="none" target-height="14.587788" target-width="11.068375" target-x="141.61037" target-y="63.852215"></path><path d="M 151.00 78.44 C 150.83 77.37 151.11 76.29 151.78 75.44 C 152.93 73.60 153.16 72.07 151.38 70.76 C 148.29 68.49 151.18 65.64 147.95 64.88 C 146.89 64.63 144.80 64.97 142.54 63.88 C 141.87 63.54 142.54 63.88 141.86 67.21 C 141.65 68.21 140.86 70.57 143.64 71.67 C 147.01 73.00 142.97 75.01 149.16 76.73 C 150.00 76.98 150.68 77.62 151.00 78.44 Z" fill="none" node-id="103" stroke="#231f20" stroke-linecap="round" stroke-width="0.57" target-height="14.587788" target-width="11.068375" target-x="141.61037" target-y="63.852215"></path><path d="M 91.50 44.30 L 107.00 44.30 C 114.28 44.32 120.18 50.22 120.20 57.50 C 120.20 64.70 115.04 70.60 107.86 70.70 C 107.15 70.57 106.43 70.84 105.98 71.41 C 105.56 71.86 105.17 72.54 104.78 73.06 L 103.85 74.33 L 102.36 72.51 C 101.30 71.20 101.23 70.70 99.58 70.70 L 91.50 70.70 C 84.21 70.70 78.30 64.79 78.30 57.50 C 78.30 50.21 84.21 44.30 91.50 44.30 Z" fill="#c6e9fa" fill-rule="evenodd" node-id="105" stroke="none" target-height="30.030003" target-width="41.899994" target-x="78.3" target-y="44.3"></path><path d="M 91.50 44.30 L 107.00 44.30 C 114.28 44.32 120.18 50.22 120.20 57.50 C 120.20 64.70 115.04 70.60 107.86 70.70 C 107.15 70.57 106.43 70.84 105.98 71.41 C 105.56 71.86 105.17 72.54 104.78 73.06 L 103.85 74.33 L 102.36 72.51 C 101.30 71.20 101.23 70.70 99.58 70.70 L 91.50 70.70 C 84.21 70.70 78.30 64.79 78.30 57.50 C 78.30 50.21 84.21 44.30 91.50 44.30 Z" fill="none" node-id="107" stroke="#231f20" stroke-linecap="round" stroke-width="0.57" target-height="30.030003" target-width="41.899994" target-x="78.3" target-y="44.3"></path><path d="M 87.65 55.00 C 88.65 55.00 89.55 55.59 89.93 56.51 C 90.31 57.43 90.11 58.49 89.40 59.20 C 88.70 59.90 87.64 60.11 86.72 59.73 C 85.80 59.35 85.20 58.46 85.20 57.46 C 85.20 56.11 86.30 55.01 87.65 55.00 Z" fill="#0094d9" fill-rule="evenodd" node-id="109" stroke="none" target-height="4.909603" target-width="4.908684" target-x="85.2" target-y="55"></path><path d="M 87.65 55.00 C 88.65 55.00 89.55 55.59 89.93 56.51 C 90.31 57.43 90.11 58.49 89.40 59.20 C 88.70 59.90 87.64 60.11 86.72 59.73 C 85.80 59.35 85.20 58.46 85.20 57.46 C 85.20 56.11 86.30 55.01 87.65 55.00 Z" fill="none" node-id="111" stroke="#231f20" stroke-linecap="round" stroke-width="0.57" target-height="4.909603" target-width="4.908684" target-x="85.2" target-y="55"></path><path d="M 95.37 55.00 C 94.37 55.00 93.47 55.59 93.09 56.51 C 92.71 57.43 92.91 58.49 93.62 59.20 C 94.32 59.90 95.38 60.11 96.30 59.73 C 97.22 59.35 97.82 58.46 97.82 57.46 C 97.82 56.11 96.72 55.01 95.37 55.00 Z" fill="#ffffff" fill-rule="evenodd" node-id="113" stroke="none" target-height="4.909603" target-width="4.908684" target-x="92.911316" target-y="55"></path><path d="M 95.37 55.00 C 94.37 55.00 93.47 55.59 93.09 56.51 C 92.71 57.43 92.91 58.49 93.62 59.20 C 94.32 59.90 95.38 60.11 96.30 59.73 C 97.22 59.35 97.82 58.46 97.82 57.46 C 97.82 56.11 96.72 55.01 95.37 55.00 Z" fill="none" node-id="115" stroke="#231f20" stroke-linecap="round" stroke-width="0.57" target-height="4.909603" target-width="4.908684" target-x="92.911316" target-y="55"></path><path d="M 103.09 55.00 C 102.09 55.00 101.19 55.59 100.81 56.51 C 100.43 57.43 100.63 58.49 101.34 59.20 C 102.04 59.90 103.10 60.11 104.02 59.73 C 104.94 59.35 105.54 58.46 105.54 57.46 C 105.54 56.11 104.44 55.01 103.09 55.00 Z" fill="#ffffff" fill-rule="evenodd" node-id="117" stroke="none" target-height="4.9095993" target-width="4.908684" target-x="100.63132" target-y="55"></path><path d="M 103.09 55.00 C 102.09 55.00 101.19 55.59 100.81 56.51 C 100.43 57.43 100.63 58.49 101.34 59.20 C 102.04 59.90 103.10 60.11 104.02 59.73 C 104.94 59.35 105.54 58.46 105.54 57.46 C 105.54 56.11 104.44 55.01 103.09 55.00 Z" fill="none" node-id="119" stroke="#231f20" stroke-linecap="round" stroke-width="0.57" target-height="4.9095993" target-width="4.908684" target-x="100.63132" target-y="55"></path><path d="M 120.05 135.35 L 115.74 135.35 L 117.10 174.35 L 118.69 174.35 L 120.05 135.35 Z" fill="#a68a6b" fill-rule="evenodd" node-id="121" stroke="none" target-height="39" target-width="4.310005" target-x="115.74" target-y="135.35"></path><path d="M 120.05 135.35 L 115.74 135.35 L 117.10 174.35 L 118.69 174.35 L 120.05 135.35 Z" fill="none" node-id="123" stroke="#231f20" stroke-linecap="round" stroke-width="0.57" target-height="39" target-width="4.310005" target-x="115.74" target-y="135.35"></path><path d="M 55.50 107.73 L 43.03 174.31" fill="none" node-id="125" stroke="#231f20" stroke-linecap="round" stroke-width="0.57" target-height="66.579994" target-width="12.470001" target-x="43.03" target-y="107.73"></path><path d="M 46.24 107.73 L 58.71 174.31" fill="none" node-id="127" stroke="#231f20" stroke-linecap="round" stroke-width="0.57" target-height="66.579994" target-width="12.469997" target-x="46.24" target-y="107.73"></path><path d="M 102.26 174.07 L 97.20 156.49 L 74.54 156.49 C 74.74 157.76 75.22 159.49 71.98 162.35 C 70.53 163.64 67.25 164.75 64.98 166.35 C 62.98 167.75 59.68 170.87 59.59 174.35 L 85.83 174.35 L 87.67 171.70 L 88.76 174.11 Z" fill="#ffffff" fill-rule="evenodd" node-id="129" stroke="none" target-height="17.86" target-width="42.670002" target-x="59.59" target-y="156.49"></path><path d="M 102.26 174.07 L 97.20 156.49 L 74.54 156.49 C 74.74 157.76 75.22 159.49 71.98 162.35 C 70.53 163.64 67.25 164.75 64.98 166.35 C 62.98 167.75 59.68 170.87 59.59 174.35 L 85.83 174.35 L 87.67 171.70 L 88.76 174.11 Z" fill="none" node-id="131" stroke="#231f20" stroke-linecap="round" stroke-width="0.57" target-height="17.86" target-width="42.670002" target-x="59.59" target-y="156.49"></path><path d="M 60.37 171.22 L 101.30 171.22" fill="none" node-id="133" stroke="#231f20" stroke-linecap="round" stroke-width="0.57" target-height="0" target-width="40.930004" target-x="60.37" target-y="171.22"></path><path d="M 91.67 158.51 C 92.27 158.52 92.83 158.77 93.24 159.21 C 93.65 159.64 93.87 160.22 93.85 160.81 C 93.87 162.06 92.88 163.08 91.63 163.11 C 91.03 163.10 90.47 162.85 90.06 162.41 C 89.65 161.98 89.43 161.40 89.45 160.81 C 89.43 159.56 90.42 158.54 91.67 158.51 Z" fill="#ffffff" fill-rule="evenodd" node-id="135" stroke="none" target-height="4.600006" target-width="4.4000015" target-x="89.45" target-y="158.51"></path><path d="M 91.67 158.51 C 92.27 158.52 92.83 158.77 93.24 159.21 C 93.65 159.64 93.87 160.22 93.85 160.81 C 93.87 162.06 92.88 163.08 91.63 163.11 C 91.03 163.10 90.47 162.85 90.06 162.41 C 89.65 161.98 89.43 161.40 89.45 160.81 C 89.43 159.56 90.42 158.54 91.67 158.51 Z" fill="none" node-id="137" stroke="#ff0000" stroke-linecap="round" stroke-width="0.57" target-height="4.600006" target-width="4.4000015" target-x="89.45" target-y="158.51"></path><path d="M 68.86 164.19 C 70.99 164.14 74.47 170.19 74.22 171.19" fill="none" node-id="139" stroke="#231f20" stroke-linecap="round" stroke-width="0.57" target-height="7" target-width="5.3600006" target-x="68.86" target-y="164.19"></path><path d="M 72.26 167.05 C 76.34 166.15 80.91 161.35 80.43 156.49" fill="none" node-id="141" stroke="#231f20" stroke-linecap="round" stroke-width="0.57" target-height="10.559998" target-width="8.169998" target-x="72.26" target-y="156.49"></path><path d="M 108.23 106.65 L 125.14 106.72 L 122.14 107.80 L 129.63 107.80 C 142.36 115.29 135.32 135.32 122.98 135.32 L 113.25 135.32 C 113.08 135.02 113.45 135.96 113.55 136.32 C 116.55 145.77 119.99 156.27 120.21 156.84 L 71.87 156.84 C 71.49 155.36 68.44 145.37 65.28 134.84 C 62.89 126.89 67.41 121.65 71.62 120.31 C 73.09 119.84 82.85 115.78 91.93 112.21 C 99.93 109.07 108.23 106.70 108.23 106.70" fill="#231f20" fill-rule="evenodd" node-id="143" stroke="none" target-height="50.189995" target-width="71.71647" target-x="64.62603" target-y="106.65"></path><path d="M 125.65 174.36 L 119.85 156.47 L 97.28 156.47 C 97.53 157.74 98.07 159.47 94.93 162.33 C 93.54 163.62 90.29 164.73 88.08 166.28 C 86.08 167.68 82.95 170.81 82.99 174.28 L 109.23 174.28 L 110.97 171.63 L 112.15 174.35 Z" fill="#ffffff" fill-rule="evenodd" node-id="145" stroke="none" target-height="17.89" target-width="42.660004" target-x="82.99" target-y="156.47"></path><path d="M 125.65 174.36 L 119.85 156.47 L 97.28 156.47 C 97.53 157.74 98.07 159.47 94.93 162.33 C 93.54 163.62 90.30 164.73 88.08 166.28 C 86.08 167.68 82.95 170.81 82.99 174.28 L 109.23 174.28 L 110.97 171.63 L 112.15 174.35 Z" fill="none" node-id="147" stroke="#231f20" stroke-linecap="round" stroke-width="0.57" target-height="17.89" target-width="42.660004" target-x="82.99" target-y="156.47"></path><path d="M 83.65 171.21 L 124.58 171.21" fill="none" node-id="149" stroke="#231f20" stroke-linecap="round" stroke-width="0.57" target-height="0" target-width="40.93" target-x="83.65" target-y="171.21"></path><path d="M 114.47 158.51 C 115.06 158.52 115.62 158.77 116.03 159.21 C 116.43 159.64 116.65 160.22 116.62 160.81 C 116.61 162.06 115.62 163.07 114.37 163.11 C 113.78 163.10 113.21 162.85 112.81 162.42 C 112.40 161.98 112.19 161.40 112.22 160.81 C 112.22 159.56 113.22 158.54 114.47 158.51 Z" fill="#ffffff" fill-rule="evenodd" node-id="151" stroke="none" target-height="4.600006" target-width="4.4000015" target-x="112.22" target-y="158.51"></path><path d="M 114.47 158.51 C 115.06 158.52 115.62 158.77 116.03 159.21 C 116.43 159.64 116.65 160.22 116.62 160.81 C 116.61 162.06 115.62 163.07 114.37 163.11 C 113.78 163.10 113.21 162.85 112.81 162.42 C 112.40 161.98 112.19 161.40 112.22 160.81 C 112.22 159.56 113.22 158.54 114.47 158.51 Z" fill="none" node-id="153" stroke="#ff0000" stroke-linecap="round" stroke-width="0.57" target-height="4.600006" target-width="4.4000015" target-x="112.22" target-y="158.51"></path><path d="M 91.89 164.17 C 94.01 164.17 97.72 170.17 97.50 171.17" fill="none" node-id="155" stroke="#231f20" stroke-linecap="round" stroke-width="0.57" target-height="7" target-width="5.6100006" target-x="91.89" target-y="164.17"></path><path d="M 95.39 167.00 C 99.39 166.10 103.83 161.30 103.17 156.44" fill="none" node-id="157" stroke="#231f20" stroke-linecap="round" stroke-width="0.57" target-height="10.559998" target-width="7.8108444" target-x="95.39" target-y="156.44"></path><path d="M 133.64 112.32 L 130.39 112.32 C 130.87 113.71 132.63 122.10 132.67 122.51 L 135.08 123.57" fill="none" node-id="159" stroke="#ffffff" stroke-linecap="round" stroke-width="0.57" target-height="11.25" target-width="4.6900024" target-x="130.39" target-y="112.32"></path><path d="M 164.12 107.73 L 38.13 107.73" fill="none" node-id="161" stroke="#231f20" stroke-linecap="round" stroke-width="0.57" target-height="0" target-width="125.98999" target-x="38.13" target-y="107.73"></path><path d="M 149.06 107.73 L 161.52 174.31" fill="none" node-id="163" stroke="#231f20" stroke-linecap="round" stroke-width="0.57" target-height="66.579994" target-width="12.460007" target-x="149.06" target-y="107.73"></path><path d="M 158.31 107.73 L 145.84 174.31" fill="none" node-id="165" stroke="#231f20" stroke-linecap="round" stroke-width="0.57" target-height="66.579994" target-width="12.470001" target-x="145.84" target-y="107.73"></path><path d="M 124.74 79.31 C 123.60 76.73 119.74 75.71 118.67 78.95 C 118.47 79.57 117.96 80.05 117.33 80.22 C 116.70 80.38 116.02 80.21 115.54 79.77 C 115.51 79.18 115.23 78.63 114.78 78.25 C 114.32 77.88 113.74 77.70 113.15 77.77 C 111.91 77.93 110.77 79.20 110.15 81.10 C 109.59 82.71 108.63 85.48 108.03 87.78 C 107.82 88.56 107.56 89.89 107.56 89.89 C 107.56 89.89 111.89 89.89 111.90 89.89 L 110.46 100.04 L 121.80 99.04 L 120.80 90.25 L 130.39 90.25 Z" fill="#ffffff" fill-rule="evenodd" node-id="167" stroke="none" target-height="23.094498" target-width="22.830002" target-x="107.56" target-y="76.9455"></path><path d="M 124.74 79.31 C 123.60 76.73 119.74 75.71 118.67 78.95 C 118.47 79.57 117.96 80.05 117.33 80.22 C 116.70 80.38 116.02 80.21 115.54 79.77 C 115.51 79.18 115.23 78.63 114.78 78.25 C 114.32 77.88 113.74 77.70 113.15 77.77 C 111.91 77.93 110.77 79.20 110.15 81.10 C 109.59 82.71 108.63 85.48 108.03 87.78 C 107.82 88.56 107.56 89.89 107.56 89.89 C 107.56 89.89 111.89 89.89 111.90 89.89 L 110.46 100.04 L 121.80 99.04 L 120.80 90.25 L 130.39 90.25 Z" fill="none" node-id="169" stroke="#231f20" stroke-linecap="round" stroke-width="0.57" target-height="23.094498" target-width="22.830002" target-x="107.56" target-y="76.9455"></path><path d="M 114.85 76.30 C 114.41 74.59 115.08 73.18 116.46 72.90 C 116.82 72.78 117.22 72.90 117.46 73.19 L 118.66 78.74 C 118.95 80.21 116.12 80.91 115.51 79.74 Z" fill="#f9d1e3" fill-rule="evenodd" node-id="171" stroke="none" target-height="7.4374847" target-width="3.9357147" target-x="114.72429" target-y="72.88992"></path><path d="M 114.85 76.30 C 114.41 74.59 115.08 73.18 116.46 72.90 C 116.82 72.78 117.22 72.90 117.46 73.19 L 118.66 78.74 C 118.95 80.21 116.12 80.91 115.51 79.74 Z" fill="none" node-id="173" stroke="#231f20" stroke-linecap="round" stroke-width="0.57" target-height="7.4374847" target-width="3.9357147" target-x="114.72429" target-y="72.88992"></path><path d="M 120.11 87.46 L 120.56 90.33" fill="none" node-id="175" stroke="#231f20" stroke-linecap="round" stroke-width="0.57" target-height="2.8700027" target-width="0.44999695" target-x="120.11" target-y="87.46"></path><path d="M 112.21 87.39 L 110.43 99.73" fill="none" node-id="177" stroke="#231f20" stroke-linecap="round" stroke-width="0.57" target-height="12.340004" target-width="1.7799988" target-x="110.43" target-y="87.39"></path><path d="M 109.81 68.66 C 110.24 67.57 111.14 66.72 112.25 66.35 C 114.86 65.89 117.39 66.66 118.18 69.77 C 118.53 72.08 117.41 74.36 115.38 75.51 C 111.26 77.46 107.53 73.10 109.81 68.66 Z" fill="#f9d1e3" fill-rule="evenodd" node-id="179" stroke="none" target-height="9.690857" target-width="9.067841" target-x="109.11216" target-y="66.25603"></path><path d="M 109.81 68.66 C 110.24 67.57 111.14 66.72 112.25 66.35 C 114.86 65.89 117.39 66.66 118.18 69.77 C 118.53 72.08 117.41 74.36 115.38 75.51 C 111.26 77.46 107.53 73.10 109.81 68.66 Z" fill="none" node-id="181" stroke="#231f20" stroke-linecap="round" stroke-width="0.57" target-height="9.690857" target-width="9.067841" target-x="109.11216" target-y="66.25603"></path><path d="M 110.83 71.79 C 110.95 71.48 111.27 71.33 111.72 71.59 L 111.97 71.79" fill="none" node-id="183" stroke="#231f20" stroke-linecap="round" stroke-width="0.57" target-height="0.30793" target-width="1.1399994" target-x="110.83" target-y="71.48207"></path><path d="M 111.05 70.00 C 111.24 70.01 111.39 70.16 111.39 70.35 C 111.39 70.54 111.24 70.69 111.05 70.69 C 110.86 70.69 110.71 70.54 110.71 70.35 C 110.71 70.16 110.86 70.01 111.05 70.00 Z" fill="#231f20" fill-rule="evenodd" node-id="185" stroke="none" target-height="0.69000244" target-width="0.6800003" target-x="110.71" target-y="70"></path><path d="M 111.05 70.00 C 111.24 70.01 111.39 70.16 111.39 70.35 C 111.39 70.54 111.24 70.69 111.05 70.69 C 110.86 70.69 110.71 70.54 110.71 70.35 C 110.71 70.16 110.86 70.01 111.05 70.00 Z" fill="none" node-id="187" stroke="#231f20" stroke-linecap="round" stroke-width="0.06" target-height="0.69000244" target-width="0.6800003" target-x="110.71" target-y="70"></path><path d="M 97.85 107.50 L 98.56 99.60 L 105.08 98.69 L 107.55 89.92 L 111.86 89.92 L 109.37 107.50 L 97.85 107.50 Z" fill="#f9d1e3" fill-rule="evenodd" node-id="189" stroke="none" target-height="17.580002" target-width="14.010002" target-x="97.85" target-y="89.92"></path><path d="M 97.85 107.50 L 98.56 99.60 L 105.08 98.69 L 107.55 89.92 L 111.86 89.92 L 109.37 107.50 L 97.85 107.50 Z" fill="none" node-id="191" stroke="#231f20" stroke-linecap="round" stroke-width="0.57" target-height="17.580002" target-width="14.010002" target-x="97.85" target-y="89.92"></path><path d="M 113.00 70.00 C 113.19 70.01 113.34 70.16 113.34 70.35 C 113.34 70.54 113.19 70.69 113.00 70.69 C 112.81 70.69 112.66 70.54 112.66 70.35 C 112.66 70.16 112.81 70.01 113.00 70.00 Z" fill="#231f20" fill-rule="evenodd" node-id="193" stroke="none" target-height="0.69000244" target-width="0.6799927" target-x="112.66" target-y="70"></path><path d="M 113.00 70.00 C 113.19 70.01 113.34 70.16 113.34 70.35 C 113.34 70.54 113.19 70.69 113.00 70.69 C 112.81 70.69 112.66 70.54 112.66 70.35 C 112.66 70.16 112.81 70.01 113.00 70.00 Z" fill="none" node-id="195" stroke="#231f20" stroke-linecap="round" stroke-width="0.06" target-height="0.69000244" target-width="0.6799927" target-x="112.66" target-y="70"></path><path d="M 130.27 90.31 C 131.46 92.36 132.38 94.55 133.00 96.84 C 134.92 104.54 131.86 107.74 131.58 107.74 C 131.30 107.74 110.91 107.34 111.46 107.34 C 107.19 107.75 101.17 107.74 99.98 107.74 C 98.98 107.74 99.33 102.18 99.33 102.18 C 102.81 101.12 111.41 99.68 121.75 98.89 L 124.98 101.75" fill="none" node-id="197" stroke="#231f20" stroke-linecap="round" stroke-width="0.57" target-height="17.43" target-width="34.31716" target-x="99.28001" target-y="90.31"></path><path d="M 120.55 90.19 L 130.21 90.19 C 131.42 92.28 132.35 94.51 133.00 96.83 C 134.92 104.53 131.87 107.73 131.58 107.73 C 131.29 107.73 110.91 107.33 111.46 107.33 C 107.19 107.74 101.18 107.73 99.99 107.73 C 98.99 107.73 99.34 102.17 99.34 102.17 C 102.82 101.11 111.42 99.67 121.75 98.88 Z" fill="#f9d1e3" fill-rule="evenodd" node-id="199" stroke="none" target-height="17.54" target-width="34.307938" target-x="99.28999" target-y="90.19"></path><path d="M 120.55 90.19 L 130.21 90.19 C 131.42 92.28 132.35 94.51 133.00 96.83 C 134.92 104.53 131.87 107.73 131.58 107.73 C 131.29 107.73 110.91 107.33 111.46 107.33 C 107.19 107.74 101.18 107.73 99.99 107.73 C 98.99 107.73 99.34 102.17 99.34 102.17 C 102.82 101.11 111.42 99.67 121.75 98.88 Z" fill="none" node-id="201" stroke="#231f20" stroke-linecap="round" stroke-width="0.57" target-height="17.54" target-width="34.307938" target-x="99.28999" target-y="90.19"></path><path d="M 123.69 75.00 C 122.15 68.68 120.92 64.84 115.61 64.81 C 111.45 64.81 109.98 68.22 110.26 68.20 L 116.16 68.20 L 117.85 75.00 Z" fill="#231f20" fill-rule="evenodd" node-id="203" stroke="none" target-height="10.190002" target-width="13.454193" target-x="110.23581" target-y="64.81"></path><path d="M 123.69 75.00 C 122.15 68.68 120.92 64.84 115.61 64.81 C 111.45 64.81 109.98 68.22 110.26 68.20 L 116.16 68.20 L 117.85 75.00 Z" fill="none" node-id="205" stroke="#231f20" stroke-linecap="round" stroke-width="0.57" target-height="10.190002" target-width="13.454193" target-x="110.23581" target-y="64.81"></path><path d="M 107.52 89.92 L 105.08 98.69 L 98.56 99.60" fill="none" node-id="207" stroke="#231f20" stroke-linecap="round" stroke-width="0.57" target-height="9.68" target-width="8.959999" target-x="98.56" target-y="89.92"></path><path d="M 114.48 73.22 C 114.45 73.56 114.25 73.85 113.95 74.01 C 113.65 74.17 113.29 74.16 113.00 74.00" fill="none" node-id="209" stroke="#231f20" stroke-linecap="round" stroke-width="0.57" target-height="0.90515137" target-width="1.4800034" target-x="113" target-y="73.22"></path><path d="M 56.43 104.41 L 111.62 104.41 L 111.62 107.74 L 56.43 107.74 Z" fill="#f48245" fill-rule="nonzero" node-id="211" stroke="none" target-height="3.3299942" target-width="55.190002" target-x="56.43" target-y="104.41"></path><path d="M 56.43 104.41 L 111.62 104.41 L 111.62 107.74 L 56.43 107.74 Z" fill="none" node-id="213" stroke="#231f20" stroke-linecap="round" stroke-width="0.57" target-height="3.3299942" target-width="55.190002" target-x="56.43" target-y="104.41"></path><path d="M 99.94 104.41 L 111.61 104.41 L 111.61 107.74 L 99.94 107.74 Z" fill="#f48245" fill-rule="nonzero" node-id="215" stroke="none" target-height="3.3299942" target-width="11.669998" target-x="99.94" target-y="104.41"></path><path d="M 99.94 104.41 L 111.61 104.41 L 111.61 107.74 L 99.94 107.74 Z" fill="none" node-id="217" stroke="#231f20" stroke-linecap="round" stroke-width="0.57" target-height="3.3299942" target-width="11.669998" target-x="99.94" target-y="104.41"></path><path d="M 113.21 135.35 L 140.58 135.35" fill="none" node-id="219" stroke="#231f20" stroke-linecap="round" stroke-width="0.57" target-height="0" target-width="27.370003" target-x="113.21" target-y="135.35"></path><path d="M 140.58 135.35 L 136.27 135.35 L 137.63 174.35 L 139.22 174.35 L 140.58 135.35 Z" fill="#a68a6b" fill-rule="evenodd" node-id="221" stroke="none" target-height="39" target-width="4.3099976" target-x="136.27" target-y="135.35"></path><path d="M 140.58 135.35 L 136.27 135.35 L 137.63 174.35 L 139.22 174.35 L 140.58 135.35 Z" fill="none" node-id="223" stroke="#231f20" stroke-linecap="round" stroke-width="0.57" target-height="39" target-width="4.3099976" target-x="136.27" target-y="135.35"></path><path d="M 117.33 135.35 L 113.01 135.35 L 114.38 174.35 L 115.96 174.35 L 117.33 135.35 Z" fill="#a68a6b" fill-rule="evenodd" node-id="225" stroke="none" target-height="39" target-width="4.3199997" target-x="113.01" target-y="135.35"></path><path d="M 117.33 135.35 L 113.01 135.35 L 114.38 174.35 L 115.96 174.35 L 117.33 135.35 Z" fill="none" node-id="227" stroke="#231f20" stroke-linecap="round" stroke-width="0.57" target-height="39" target-width="4.3199997" target-x="113.01" target-y="135.35"></path><path d="M 91.35 74.56 L 47.85 74.56 L 56.43 104.41 L 99.93 104.41 L 91.35 74.56 Z" fill="#f8a770" fill-rule="evenodd" node-id="229" stroke="none" target-height="29.850006" target-width="52.08" target-x="47.85" target-y="74.56"></path><path d="M 91.35 74.56 L 47.85 74.56 L 56.43 104.41 L 99.93 104.41 L 91.35 74.56 Z" fill="none" node-id="231" stroke="#231f20" stroke-linecap="round" stroke-width="0.57" target-height="29.850006" target-width="52.08" target-x="47.85" target-y="74.56"></path><path d="M 117.91 68.85 C 118.39 68.74 118.89 68.95 119.16 69.37 C 119.42 69.79 119.40 70.33 119.09 70.72 C 118.78 71.11 118.26 71.26 117.79 71.10 C 117.32 70.94 117.00 70.50 117.00 70.00 C 116.96 69.72 117.03 69.44 117.20 69.23 C 117.38 69.01 117.63 68.87 117.91 68.85 Z" fill="#231f20" fill-rule="evenodd" node-id="233" stroke="none" target-height="2.2634506" target-width="2.3383026" target-x="117" target-y="68.85"></path><path d="M 117.91 68.85 C 118.39 68.74 118.89 68.95 119.16 69.37 C 119.42 69.79 119.40 70.33 119.09 70.72 C 118.78 71.11 118.26 71.26 117.79 71.10 C 117.32 70.94 117.00 70.50 117.00 70.00 C 116.96 69.72 117.03 69.44 117.20 69.23 C 117.38 69.01 117.63 68.87 117.91 68.85 Z" fill="none" node-id="235" stroke="#ffffff" stroke-linecap="round" stroke-width="0.57" target-height="2.2634506" target-width="2.3383026" target-x="117" target-y="68.85"></path><path d="M 118.20 68.59 C 118.60 65.81 117.30 64.21 115.64 63.91" fill="none" node-id="237" stroke="#ffffff" stroke-linecap="round" stroke-width="0.57" target-height="4.6799965" target-width="2.5599976" target-x="115.64" target-y="63.91"></path><path d="M 118.80 68.13 C 119.20 62.39 112.40 61.43 110.80 67.22" fill="none" node-id="239" stroke="#231f20" stroke-linecap="round" stroke-width="0.57" target-height="4.7787476" target-width="8" target-x="110.8" target-y="63.35125"></path><path d="M 109.19 72.13 C 109.07 72.66 108.01 76.78 109.92 77.24" fill="none" node-id="241" stroke="#231f20" stroke-linecap="round" stroke-width="0.57" target-height="5.1100006" target-width="1.126297" target-x="108.7937" target-y="72.13"></path><path d="M 110.41 77.24 L 109.93 77.24 C 109.93 76.96 110.15 76.74 110.43 76.74 C 110.71 76.74 110.93 76.96 110.93 77.24 Z" fill="none" node-id="243" stroke="#231f20" stroke-linecap="round" stroke-width="0.57" target-height="0.5" target-width="1" target-x="109.93" target-y="76.74"></path><path d="M 64.60 59.81 L 49.08 59.81 C 41.79 59.79 35.86 65.68 35.84 72.97 C 35.82 80.26 41.71 86.19 49.00 86.21 C 49.41 86.36 49.78 86.60 50.08 86.92 C 50.50 87.37 50.89 88.05 51.28 88.57 L 52.21 89.83 L 53.72 88.00 C 54.63 86.88 54.98 86.40 55.63 86.19 L 64.63 86.19 C 71.92 86.19 77.83 80.28 77.83 72.99 C 77.83 65.70 71.92 59.79 64.63 59.79 Z" fill="#ffffff" fill-rule="evenodd" node-id="245" stroke="none" target-height="30.04" target-width="41.99" target-x="35.84" target-y="59.79"></path><path d="M 64.60 59.81 L 49.08 59.81 C 41.79 59.79 35.86 65.68 35.84 72.97 C 35.82 80.26 41.71 86.19 49.00 86.21 C 49.41 86.36 49.78 86.60 50.08 86.92 C 50.50 87.37 50.89 88.05 51.28 88.57 L 52.21 89.83 L 53.72 88.00 C 54.63 86.88 54.98 86.40 55.63 86.19 L 64.63 86.19 C 71.92 86.19 77.83 80.28 77.83 72.99 C 77.83 65.70 71.92 59.79 64.63 59.79 Z" fill="none" node-id="247" stroke="#231f20" stroke-linecap="round" stroke-width="0.57" target-height="30.04" target-width="41.99" target-x="35.84" target-y="59.79"></path><path d="M 56.56 66.00 C 59.53 66.00 62.21 67.78 63.35 70.53 C 64.49 73.27 63.86 76.43 61.76 78.53 C 59.66 80.63 56.50 81.26 53.76 80.12 C 51.01 78.98 49.23 76.30 49.23 73.33 C 49.24 69.28 52.51 66.01 56.56 66.00 Z" fill="#ffca05" fill-rule="evenodd" node-id="249" stroke="none" target-height="14.6478195" target-width="14.647823" target-x="49.23" target-y="66"></path><path d="M 56.56 66.00 C 59.53 66.00 62.21 67.78 63.35 70.53 C 64.49 73.27 63.86 76.43 61.76 78.53 C 59.66 80.63 56.50 81.26 53.76 80.12 C 51.01 78.98 49.23 76.30 49.23 73.33 C 49.24 69.28 52.51 66.01 56.56 66.00 Z" fill="none" node-id="251" stroke="#231f20" stroke-linecap="round" stroke-width="0.57" target-height="14.6478195" target-width="14.647823" target-x="49.23" target-y="66"></path><path d="M 61.23 74.00 C 61.05 76.46 58.99 78.36 56.53 78.34 C 54.06 78.32 52.03 76.39 51.89 73.93" fill="none" node-id="253" stroke="#231f20" stroke-linecap="round" stroke-width="0.57" target-height="4.41111" target-width="9.34" target-x="51.89" target-y="73.93"></path><path d="M 58.00 71.00 C 58.17 71.00 58.30 71.13 58.30 71.30 C 58.30 71.47 58.17 71.60 58.00 71.60 C 57.83 71.60 57.70 71.47 57.70 71.30 C 57.70 71.13 57.83 71.00 58.00 71.00" fill="#231f20" fill-rule="evenodd" node-id="255" stroke="none" target-height="0.5999985" target-width="0.5999985" target-x="57.7" target-y="71"></path><path d="M 54.73 71.00 C 54.89 71.01 55.02 71.14 55.02 71.31 C 55.02 71.47 54.88 71.60 54.72 71.60 C 54.55 71.60 54.42 71.46 54.42 71.30 C 54.42 71.22 54.45 71.14 54.51 71.08 C 54.57 71.03 54.65 71.00 54.73 71.00" fill="#231f20" fill-rule="evenodd" node-id="257" stroke="none" target-height="0.59981537" target-width="0.5999298" target-x="54.42" target-y="71"></path><path d="M 148.07 87.35 L 152.41 87.35 C 152.76 91.41 157.23 92.55 156.88 96.11 C 156.83 96.61 156.70 97.10 156.51 97.57 C 156.27 98.07 155.98 98.55 155.64 98.99 C 155.53 99.23 155.83 99.43 157.22 100.84 C 158.61 102.25 159.22 106.25 156.48 107.69 L 144.00 107.69 C 141.27 106.25 141.78 102.34 143.26 100.84 C 144.74 99.34 145.00 99.23 144.84 99.00 C 144.50 98.56 144.21 98.08 143.97 97.58 C 143.78 97.11 143.65 96.62 143.60 96.12 C 143.25 92.55 147.72 91.41 148.07 87.35 Z" fill="#f48245" fill-rule="evenodd" node-id="259" stroke="none" target-height="20.340004" target-width="16.34758" target-x="142.05121" target-y="87.35"></path><path d="M 148.07 87.35 L 152.41 87.35 C 152.76 91.41 157.23 92.55 156.88 96.11 C 156.83 96.61 156.70 97.10 156.51 97.57 C 156.27 98.07 155.98 98.55 155.64 98.99 C 155.53 99.23 155.83 99.43 157.22 100.84 C 158.61 102.25 159.22 106.25 156.48 107.69 L 144.00 107.69 C 141.27 106.25 141.78 102.34 143.26 100.84 C 144.74 99.34 145.00 99.23 144.84 99.00 C 144.50 98.56 144.21 98.08 143.97 97.58 C 143.78 97.11 143.65 96.62 143.60 96.12 C 143.25 92.55 147.72 91.41 148.07 87.35 Z" fill="none" node-id="261" stroke="#231f20" stroke-linecap="round" stroke-width="0.57" target-height="20.340004" target-width="16.34758" target-x="142.05121" target-y="87.35"></path><path d="M 155.66 98.98 L 147.52 98.98" fill="none" node-id="263" stroke="#231f20" stroke-linecap="round" stroke-width="0.57" target-height="0" target-width="8.139999" target-x="147.52" target-y="98.98"></path><path d="M 150.77 79.09 C 150.93 78.31 151.00 77.15 149.77 75.09 C 148.28 72.69 147.97 70.69 150.30 68.98 C 154.30 65.98 150.55 62.30 154.76 61.31 C 156.15 60.98 158.88 61.44 161.82 59.95 C 162.70 59.51 161.82 59.95 162.71 64.30 C 162.98 65.65 164.02 68.68 160.39 70.12 C 155.99 71.85 161.26 74.47 153.19 76.72 C 152.05 77.07 151.14 77.95 150.77 79.09 Z" fill="#54a175" fill-rule="evenodd" node-id="265" stroke="none" target-height="19.27256" target-width="14.432648" target-x="148.60251" target-y="59.817436"></path><path d="M 150.77 79.09 C 150.93 78.31 151.00 77.15 149.77 75.09 C 148.28 72.69 147.97 70.69 150.30 68.98 C 154.30 65.98 150.55 62.30 154.76 61.31 C 156.15 60.98 158.88 61.44 161.82 59.95 C 162.70 59.51 161.82 59.95 162.71 64.30 C 162.98 65.65 164.02 68.68 160.39 70.12 C 155.99 71.85 161.26 74.47 153.19 76.72 C 152.05 77.07 151.14 77.95 150.77 79.09 Z" fill="none" node-id="267" stroke="#231f20" stroke-linecap="round" stroke-width="0.57" target-height="19.27256" target-width="14.432648" target-x="148.60251" target-y="59.817436"></path><path d="M 150.26 87.34 C 149.85 85.99 149.94 75.34 154.99 69.42" fill="none" node-id="269" stroke="#231f20" stroke-linecap="round" stroke-width="0.57" target-height="17.919998" target-width="4.874069" target-x="150.11594" target-y="69.42"></path><path d="M 112.75 135.95 L 106.44 135.95" fill="none" node-id="271" stroke="#ffffff" stroke-linecap="round" stroke-width="0.57" target-height="0" target-width="6.3099976" target-x="106.44" target-y="135.95"></path><path d="M 91.16 156.21 L 84.79 135.11 C 82.79 129.04 84.34 122.22 91.28 119.92 L 114.05 110.92" fill="none" node-id="273" stroke="#ffffff" stroke-linecap="round" stroke-width="0.57" target-height="45.29001" target-width="30.00853" target-x="84.04147" target-y="110.92"></path></svg>